<?xml version="1.0"?>
<svg xmlns="http://www.w3.org/2000/svg" xmlns:xlink="http://www.w3.org/1999/xlink" xmlns:svgjs="http://svgjs.com/svgjs" version="1.1" width="512" height="512" x="0" y="0" viewBox="0 0 512 512" style="enable-background:new 0 0 512 512" xml:space="preserve" class=""><g transform="matrix(1,0,0,1,0,0)">
<g xmlns="http://www.w3.org/2000/svg">
	<g>
		<path d="M495.304,239.304h-23.107C464.042,132.95,379.05,47.958,272.696,39.802V16.696C272.696,7.473,265.223,0,256,0    c-9.223,0-16.696,7.473-16.696,16.696v23.107C132.95,47.958,47.958,132.95,39.802,239.304H16.696C7.473,239.304,0,246.777,0,256    c0,9.223,7.473,16.696,16.696,16.696h23.107c8.155,106.355,93.147,191.347,199.502,199.502v23.107    c0,9.223,7.473,16.696,16.696,16.696c9.223,0,16.696-7.473,16.696-16.696v-23.107c106.355-8.155,191.347-93.147,199.502-199.502    h23.107c9.217,0,16.696-7.473,16.696-16.696C512,246.777,504.521,239.304,495.304,239.304z M272.696,73.194    c87.954,7.974,158.137,78.157,166.111,166.111h-33.529c-7.731-69.527-63.054-124.85-132.581-132.581V73.194z M239.304,73.194    v33.53c-69.527,7.73-124.85,63.053-132.581,132.58H73.194C81.168,151.351,151.351,81.168,239.304,73.194z M239.305,438.806h-0.001    c-87.954-7.974-158.137-78.157-166.111-166.111h33.53c7.73,69.527,63.054,124.85,132.581,132.581V438.806z M256,339.478    c-9.223,0-16.696,7.473-16.696,16.696v15.362c-51.072-7.356-91.483-47.768-98.841-98.84h15.362    c9.223,0,16.696-7.473,16.696-16.696c0-9.223-7.473-16.696-16.696-16.696h-15.362c7.356-51.072,47.768-91.483,98.841-98.841    v15.362c0,9.223,7.473,16.696,16.696,16.696c9.223,0,16.696-7.473,16.696-16.696v-15.362c51.072,7.356,91.483,47.768,98.84,98.841    h-15.362c-9.223,0-16.696,7.473-16.696,16.696c0,9.223,7.473,16.584,16.696,16.584h15.362    c-7.356,51.072-47.768,91.595-98.84,98.952v-15.362C272.696,346.951,265.223,339.478,256,339.478z M272.696,438.806v-33.53    c69.527-7.73,124.85-63.165,132.581-132.693h33.53C430.832,360.538,360.649,430.832,272.696,438.806z" fill="#ffffff" data-original="#000000" style=""/>
	</g>
</g>
<g xmlns="http://www.w3.org/2000/svg">
	<g>
		<path d="M256,205.913c-27.619,0-50.087,22.468-50.087,50.087s22.468,50.087,50.087,50.087s50.087-22.468,50.087-50.087    S283.619,205.913,256,205.913z" fill="#ffffff" data-original="#000000" style=""/>
	</g>
</g>
<g xmlns="http://www.w3.org/2000/svg">
</g>
<g xmlns="http://www.w3.org/2000/svg">
</g>
<g xmlns="http://www.w3.org/2000/svg">
</g>
<g xmlns="http://www.w3.org/2000/svg">
</g>
<g xmlns="http://www.w3.org/2000/svg">
</g>
<g xmlns="http://www.w3.org/2000/svg">
</g>
<g xmlns="http://www.w3.org/2000/svg">
</g>
<g xmlns="http://www.w3.org/2000/svg">
</g>
<g xmlns="http://www.w3.org/2000/svg">
</g>
<g xmlns="http://www.w3.org/2000/svg">
</g>
<g xmlns="http://www.w3.org/2000/svg">
</g>
<g xmlns="http://www.w3.org/2000/svg">
</g>
<g xmlns="http://www.w3.org/2000/svg">
</g>
<g xmlns="http://www.w3.org/2000/svg">
</g>
<g xmlns="http://www.w3.org/2000/svg">
</g>
</g></svg>
